<?xml version="1.0" encoding="UTF-8" standalone="no"?>
<svg xmlns:rdf="http://www.w3.org/1999/02/22-rdf-syntax-ns#" xmlns="http://www.w3.org/2000/svg" version="1.1" xmlns:cc="http://creativecommons.org/ns#" xmlns:dc="http://purl.org/dc/elements/1.1/" viewBox="0 0 512 128">
	<text style="word-spacing:0px;letter-spacing:0px" xml:space="preserve" font-size="40px" line-height="125%" y="72.995544" x="23.807531" font-family="&apos;Luxi Sans&apos;" fill="#000000"><tspan x="23.807531" y="109.69515"/></text>
	<g aria-label="Extra turn" transform="translate(38.995 13.095)" stroke="#dcedc8" stroke-width="4" fill="#689f38">
		<path d="m31.577 46.668 11.321 17.273q-1.0782 0.57127-4.5652 2.5987-2.3373 1.4428-4.9719 3.3558l3.3635 5.2518q2.9138-2.0835 9.219-7.1836 0.4415 1.1764 1.8031 4.2693 0.83521 1.8582 2.1216 4.1506-0.89019 0.38813-4.1169 2.3819-1.4604 0.98315-4.1918 3.0918l4.1221 5.9841q1.9269-1.4996 6.9077-5.7604 0.92728-0.8245 2.7726-3.0789 0.40147 0.96174 1.9673 4.594 0.83521 1.8582 2.1434 4.6649l-23.227 17.588-16.157-19.781q-5.493-6.824-15.788-18.751z"/>
		<path d="m83.637 18.807q-0.0447 2.7953-0.50173 13.643-0.3347 6.0432-1.3131 17.447l20.993 15.242-13.506 6.8348-10.119-6.2983q-0.80883 7.3411-1.1212 11.987l-11.879 6.0117q0.36349-3.1026 1.2261-14.375 0.26931-4.5143 0.56168-10.281-3.504-2.167-11.522-7.413-8.865-5.984-15.892-11.001l19.983-10.113q0.99492 1.0288 4.0371 3.9402 1.7841 1.651 4.1074 3.4303 0.09408-1.6164 0.1629-5.4454-0.02597-2.3583-0.32004-5.9672z"/>
		<path d="m131.31 3.6515 5.1218 19.847q-1.2708 0.18684-4.0326 0.73047-1.6776 0.41425-5.4086 1.4606 0.37838 1.893 2.0761 9.0679 1.7552 6.9187 5.0381 20.349l-15.058 4.6353q-2.1835-6.2079-7.0148-19.468-1.7477-4.5709-3.4594-8.9145l-4.8581 1.6999-4.3053 1.8362-6.8018-19.33z"/>
		<path d="m186.97 13.931q0.82334 5.9327-1.8623 10.972-2.3792 4.4053-6.5549 6.7595 1.1364 1.3212 5.4565 5.4541 2.1332 1.873 6.3889 4.8317-1.4394 0.75844-6.2895 3.6992-3.383 2.1456-6.3558 4.1685-1.0961-1.031-4.9916-5.42-1.8233-2.2446-5.4983-7.6501l-0.0645 0.0089 1.2437 11.33-18.153 2.5192q-1.3302-6.9798-4.2168-23.044-1.6102-9.4714-4.9778-26.159 8.7371-2.1656 16.056-3.1813 27.116-3.7632 29.819 15.712zm-13.672 8.996q-0.42509-3.0631-3.188-4.0271-2.0366-0.70328-4.8883-0.17607l1.3369 11.054q2.6762-0.3714 4.6064-1.8552 2.5581-1.9325 2.133-4.9956z"/>
		<path d="m233.02 45.726-17.804-0.28903-1.134-4.3484q-0.75336 0.28078-3.7752 1.9246-1.9404 1.2056-4.3171 3.2181l-1.7913-3.9684q-0.53429-1.1807-1.5415-3.3132l-1.8596 6.2532-9.4389-0.15323q2.2136-8.0055 6.8751-26.422 2.8697-12.325 4.84-23.395l19.561 0.31756q0.82838 5.1248 4.5936 23.873 2.0873 9.8008 5.7913 26.302zm-20.364-11.009q-0.52531-1.734-1.862-5.6299-0.81137-2.1619-2.4751-5.9654-0.77924 1.8756-2.4438 6.146-0.91895 2.4594-2.1924 6.7036 0.97644 0.01585 4.4328-0.31871 2.0878-0.25911 4.5405-0.93554z"/>
		<path d="m295.39 5.5319-4.48 20.001q-1.2164-0.41256-3.9226-1.1867-1.6822-0.39544-5.4802-1.1635-0.5255 1.8576-2.2825 9.0181-1.5892 6.9587-4.7848 20.41l-15.516-2.7329q0.88412-6.521 2.6238-20.527 0.52638-4.8653 0.98118-9.5118l-5.0991-0.69979-4.6691-0.32657 2.7502-20.306z"/>
		<path d="m341.58 14.9-4.8597 20.507q-2.0855 8.7785-5.6627 26.686-8.7585 1.3044-17.25-0.39172-10.47-2.0915-15.094-7.3635-3.9208-4.4679-4.3376-12.352-0.25643-4.5326 1.0431-16.19 1.1593-10.789 2.683-19.58l20.589 4.1128q-1.0013 4.1818-3.1249 13.65-1.1542 5.2798-2.9395 15.048-1.4474 7.4122-0.71896 10.246 0.76041 3.0067 4.6867 3.791 1.1173 0.22318 2.6174-0.14107 1.3135-6.5758 3.7935-20.985 1.1155-7.2461 2.8042-20.187z"/>
		<path d="m383.82 43.288q-1.2883 5.8494-5.5568 9.6425-3.7611 3.3049-8.4944 4.0623 0.60685 1.6336 3.2227 7.0096 1.35 2.4972 4.3133 6.7497-1.6132 0.21137-7.1827 1.2847-3.9176 0.83714-7.4079 1.7017-0.66986-1.3475-2.7987-6.8162-0.93024-2.7381-2.4993-9.0835l-0.0636-0.014-2.7684 11.057-17.898-3.9418q1.1766-7.0073 4.0485-23.074 1.7793-9.4411 4.4167-26.26 8.9454 1.0035 16.162 2.5928 26.736 5.8882 22.507 25.089zm-15.945 3.6881q0.66513-3.0201-1.591-4.8836-1.6656-1.3668-4.5229-1.8628l-2.59 10.83q2.6386 0.58112 4.964-0.14003 3.07-0.92381 3.7352-3.9439z"/>
		<path d="m430.05 35.61q-2.065 6.2595-6.896 21.925-3.4467 11.551-7.6277 26.643-3.3046-4.3019-10.119-12.891-3.0082-3.4873-8.9615-10.446l-4.5748 16.638-10.157-2.5878q1.3791-6.4678 4.9888-24.46 2.876-14.585 4.5794-24.699l15.835 4.0343 8.9057 14.093q0.97243-3.8169 1.4008-6.0256 0.39559-1.9483 0.92339-5.2066z"/>
	</g>
</svg>
