<?xml version="1.0" encoding="UTF-8"?>
<svg xmlns="http://www.w3.org/2000/svg" xmlns:xlink="http://www.w3.org/1999/xlink" viewBox="0 0 128 128" width="128" height="128">
	<defs>
		<radialGradient id="orb-gradient" rx="35" ry="20">
			<stop offset="0" stop-color="rgba(64,64,64,0.0)"/>
			<stop offset="0.5" stop-color="rgba(64,64,64,0.0)"/>
			<stop offset="0.98" stop-color="rgba(64,64,64,0.5)"/>
			<stop offset="1" stop-color="rgba(64,64,64,0.8)"/>
		</radialGradient>

		<circle id="orb-circle" r="50" fill="inherit" cx="0" cy="0"/>

		<mask id="bottom-glow-mask">
			<rect width="100%" height="100%" fill="#000"/>
			<use xlink:href="#orb-circle" fill="#fff"/>
			<ellipse cy="-10" rx="55" ry="50" fill="#000"/>
		</mask>

		<filter id="blur" x="0" y="0">
			<feGaussianBlur in="SourceGraphic" stdDeviation="0.5"/>
		</filter>

		<g id="orb">
			<use xlink:href="#orb-circle"/>
			<ellipse rx="50" ry="50" fill="url(#orb-gradient)" mask="url(#bottom-glow-mask)" transform="rotate(30)"/>
			<ellipse rx="5" ry="7" fill="rgba(255,255,255,0.7)" transform="rotate(-45) translate(42,0)" filter="url(#blur)"/>
			<ellipse rx="2" ry="3" fill="rgba(255,255,255,0.6)" transform="rotate(-60) translate(45,0) rotate(-10)" filter="url(#blur)"/>
		</g>

		<g id="orb-fire">
			<use xlink:href="#orb" fill="#D32F2F"/>
			<path fill="#F57C00" stroke="#FF9800" stroke-width="0.5" transform="scale(2.6) translate(-12,-10)" d="M11.71,19C9.93,19 8.5,17.59 8.5,15.86C8.5,14.24 9.53,13.1 11.3,12.74C13.07,12.38 14.9,11.53 15.92,10.16C16.31,11.45 16.5,12.81 16.5,14.2C16.5,16.84 14.36,19 11.71,19M13.5,0.67C13.5,0.67 14.24,3.32 14.24,5.47C14.24,7.53 12.89,9.2 10.83,9.2C8.76,9.2 7.2,7.53 7.2,5.47L7.23,5.1C5.21,7.5 4,10.61 4,14A8,8 0 0,0 12,22A8,8 0 0,0 20,14C20,8.6 17.41,3.8 13.5,0.67Z"/>
		</g>

		<g id="orb-wind">
			<use xlink:href="#orb" fill="#FFA000"/>
			<path fill="#FFECB3" stroke="rgba(64,64,64,0.2)" transform="scale(2.6) translate(-12,-12)" d="M12,7A5,5 0 0,1 17,12A5,5 0 0,1 12,17A5,5 0 0,1 7,12A5,5 0 0,1 12,7M12,9A3,3 0 0,0 9,12A3,3 0 0,0 12,15A3,3 0 0,0 15,12A3,3 0 0,0 12,9M12,2L14.39,5.42C13.65,5.15 12.84,5 12,5C11.16,5 10.35,5.15 9.61,5.42L12,2M3.34,7L7.5,6.65C6.9,7.16 6.36,7.78 5.94,8.5C5.5,9.24 5.25,10 5.11,10.79L3.34,7M3.36,17L5.12,13.23C5.26,14 5.53,14.78 5.95,15.5C6.37,16.24 6.91,16.86 7.5,17.37L3.36,17M20.65,7L18.88,10.79C18.74,10 18.47,9.23 18.05,8.5C17.63,7.78 17.1,7.15 16.5,6.64L20.65,7M20.64,17L16.5,17.36C17.09,16.85 17.62,16.22 18.04,15.5C18.46,14.77 18.73,14 18.87,13.21L20.64,17M12,22L9.59,18.56C10.33,18.83 11.14,19 12,19C12.82,19 13.63,18.83 14.37,18.56L12,22Z"/>
			<circle r="14" fill="#FFECB3" stroke="rgba(64,64,64,0.2)" stroke-width="2"/>
		</g>

		<g id="orb-nature">
			<use xlink:href="#orb" fill="#388E3C"/>
			<path fill="#8BC34A" stroke="rgba(64,64,64,0.2)" stroke-width="1.5" transform="scale(2.25) translate(-12,-10)" d="M17,8C8,10 5.9,16.17 3.82,21.34L5.71,22L6.66,19.7C7.14,19.87 7.64,20 8,20C19,20 22,3 22,3C21,5 14,5.25 9,6.25C4,7.25 2,11.5 2,13.5C2,15.5 3.75,17.25 3.75,17.25C7,8 17,8 17,8Z"/>
		</g>

		<g id="orb-water">
			<use xlink:href="#orb" fill="#1976D2"/>
			<path fill="#03A9F4" stroke="#B3E5FC" stroke-width="0.25" transform="scale(2.6) translate(-12,-10)" d="M12,20A6,6 0 0,1 6,14C6,10 12,3.25 12,3.25C12,3.25 18,10 18,14A6,6 0 0,1 12,20Z"/>
		</g>

		<g id="orb-arcane">
			<use xlink:href="#orb" fill="#512DA8"/>
			<path fill="#C5CAE9" stroke="none" transform="scale(2.6) translate(-12,-10)" d="M17.75,4.09L15.22,6.03L16.13,9.09L13.5,7.28L10.87,9.09L11.78,6.03L9.25,4.09L12.44,4L13.5,1L14.56,4L17.75,4.09M21.25,11L19.61,12.25L20.2,14.23L18.5,13.06L16.8,14.23L17.39,12.25L15.75,11L17.81,10.95L18.5,9L19.19,10.95L21.25,11M18.97,15.95C19.8,15.87 20.69,17.05 20.16,17.8C19.84,18.25 19.5,18.67 19.08,19.07C15.17,23 8.84,23 4.94,19.07C1.03,15.17 1.03,8.83 4.94,4.93C5.34,4.53 5.76,4.17 6.21,3.85C6.96,3.32 8.14,4.21 8.06,5.04C7.79,7.9 8.75,10.87 10.95,13.06C13.14,15.26 16.1,16.22 18.97,15.95M17.33,17.97C14.5,17.81 11.7,16.64 9.53,14.5C7.36,12.31 6.2,9.5 6.04,6.68C3.23,9.82 3.34,14.64 6.35,17.66C9.37,20.67 14.19,20.78 17.33,17.97Z"/>
		</g>

		<g id="orb-stone">
			<use xlink:href="#orb" fill="#5D4037"/>
			<path fill="#D7CCC8" stroke="#795548" stroke-width="0.5" transform="scale(2.6) translate(-12,-10)" d="M16,9H19L14,16M10,9H14L12,17M5,9H8L10,16M15,4H17L19,7H16M11,4H13L14,7H10M7,4H9L8,7H5M6,2L2,8L12,22L22,8L18,2H6Z"/>
		</g>
	</defs>

	<use xlink:href="#orb-arcane" x="64" y="64"/>
</svg>