<?xml version="1.0" encoding="UTF-8"?>
<svg xmlns="http://www.w3.org/2000/svg" xmlns:xlink="http://www.w3.org/1999/xlink" viewBox="0 0 1920 1080" width="1920" height="1080">
	<defs>
		<g id="bulletpoint" transform="translate(12,0)">
			<path fill="rgba(0,0,0,0.8)" stroke="none" d="M12,2A10,10 0 0,1 22,12A10,10 0 0,1 12,22A10,10 0 0,1 2,12A10,10 0 0,1 12,2M11,16.5L18,9.5L16.59,8.09L11,13.67L7.91,10.59L6.5,12L11,16.5Z"/>
			<rect fill="rgba(0,0,0,0.8)" stroke="none" x="30" y="0" width="174" height="24"/>
		</g>

		<g id="unit">
			<rect width="230" height="470" stroke-width="10" fill="inherit" stroke="inherit"/>
			<path fill="rgba(0,0,0,0.85)" stroke="#000" transform="translate(-5, -15) scale(10)" d="M12,4A4,4 0 0,1 16,8A4,4 0 0,1 12,12A4,4 0 0,1 8,8A4,4 0 0,1 12,4M12,14C16.42,14 20,15.79 20,18V20H4V18C4,15.79 7.58,14 12,14Z" />

			<path fill="rgba(0,0,0,0.8)" stroke="none" transform="translate(25,200) scale(3)" d="M12,12H19C18.47,16.11 15.72,19.78 12,20.92V12H5V6.3L12,3.19M12,1L3,5V11C3,16.55 6.84,21.73 12,23C17.16,21.73 21,16.55 21,11V5L12,1Z"/>
			<path fill="rgba(0,0,0,0.8)" stroke="none" transform="translate(135,200) scale(3)" d="M7.5,4A5.5,5.5 0 0,0 2,9.5C2,10 2.09,10.5 2.22,11H6.3L7.57,7.63C7.87,6.83 9.05,6.75 9.43,7.63L11.5,13L12.09,11.58C12.22,11.25 12.57,11 13,11H21.78C21.91,10.5 22,10 22,9.5A5.5,5.5 0 0,0 16.5,4C14.64,4 13,4.93 12,6.34C11,4.93 9.36,4 7.5,4V4M3,12.5A1,1 0 0,0 2,13.5A1,1 0 0,0 3,14.5H5.44L11,20C12,20.9 12,20.9 13,20L18.56,14.5H21A1,1 0 0,0 22,13.5A1,1 0 0,0 21,12.5H13.4L12.47,14.8C12.07,15.81 10.92,15.67 10.55,14.83L8.5,9.5L7.54,11.83C7.39,12.21 7.05,12.5 6.6,12.5H3Z"/>
			<path fill="rgba(0,0,0,0.8)" stroke="none" transform="translate(25,280) scale(3)" d="M6.92,5H5L14,14L15,13.06M19.96,19.12L19.12,19.96C18.73,20.35 18.1,20.35 17.71,19.96L14.59,16.84L11.91,19.5L10.5,18.09L11.92,16.67L3,7.75V3H7.75L16.67,11.92L18.09,10.5L19.5,11.91L16.83,14.58L19.95,17.7C20.35,18.1 20.35,18.73 19.96,19.12Z"/>
			<path fill="rgba(0,0,0,0.8)" stroke="none" transform="translate(135,280) scale(3)" d="M7.5,5.6L5,7L6.4,4.5L5,2L7.5,3.4L10,2L8.6,4.5L10,7L7.5,5.6M19.5,15.4L22,14L20.6,16.5L22,19L19.5,17.6L17,19L18.4,16.5L17,14L19.5,15.4M22,2L20.6,4.5L22,7L19.5,5.6L17,7L18.4,4.5L17,2L19.5,3.4L22,2M13.34,12.78L15.78,10.34L13.66,8.22L11.22,10.66L13.34,12.78M14.37,7.29L16.71,9.63C17.1,10 17.1,10.65 16.71,11.04L5.04,22.71C4.65,23.1 4,23.1 3.63,22.71L1.29,20.37C0.9,20 0.9,19.35 1.29,18.96L12.96,7.29C13.35,6.9 14,6.9 14.37,7.29Z" />

			<use xlink:href="#bulletpoint" transform="translate(0,363)"/>
			<use xlink:href="#bulletpoint" transform="translate(0,397)"/>
			<use xlink:href="#bulletpoint" transform="translate(0,431)"/>
		</g>

		<g id="units">
			<use xlink:href="#unit" fill="#F44336" stroke="#D32F2F" x="5" y="5"/>
			<use xlink:href="#unit" fill="#4CAF50" stroke="#388E3C" x="245" y="5"/>
			<use xlink:href="#unit" fill="#2196F3" stroke="#1976D2" x="5" y="485"/>
			<use xlink:href="#unit" fill="#FFC107" stroke="#FFA000" x="245" y="485"/>
		</g>

		<rect id="sq" fill="#FFF" stroke="#DDD" stroke-width="10" width="110" height="110"/>
		<rect id="sq-alt" fill="#222" stroke="#000" stroke-width="10" width="110" height="110"/>
		<g id="row" transform="translate(5,5)">
			<use xlink:href="#sq" x="0"/>
			<use xlink:href="#sq" x="240"/>
			<use xlink:href="#sq" x="480"/>
			<use xlink:href="#sq" x="720"/>
			<use xlink:href="#sq-alt" x="120"/>
			<use xlink:href="#sq-alt" x="360"/>
			<use xlink:href="#sq-alt" x="600"/>
			<use xlink:href="#sq-alt" x="840"/>
		</g>
		<g id="row-alt">
			<use xlink:href="#row" transform="scale(-1,1) translate(-960,0)"/>
		</g>

		<radialGradient id="orb-gradient" rx="35" ry="20">
			<stop offset="0" stop-color="rgba(64,64,64,0.0)"/>
			<stop offset="0.5" stop-color="rgba(64,64,64,0.0)"/>
			<stop offset="0.98" stop-color="rgba(64,64,64,0.5)"/>
			<stop offset="1" stop-color="rgba(64,64,64,0.8)"/>
		</radialGradient>

		<circle id="orb-circle" r="50" fill="inherit" cx="0" cy="0"/>

		<mask id="bottom-glow-mask">
			<rect width="100%" height="100%" fill="#000"/>
			<use xlink:href="#orb-circle" fill="#fff"/>
			<ellipse cy="-10" rx="55" ry="50" fill="#000"/>
		</mask>

		<filter id="blur" x="0" y="0">
			<feGaussianBlur in="SourceGraphic" stdDeviation="0.5"/>
		</filter>

		<g id="orb">
			<use xlink:href="#orb-circle"/>
			<ellipse rx="50" ry="50" fill="url(#orb-gradient)" mask="url(#bottom-glow-mask)" transform="rotate(30)"/>
			<ellipse rx="5" ry="7" fill="rgba(255,255,255,0.7)" transform="rotate(-45) translate(42,0)" filter="url(#blur)"/>
			<ellipse rx="2" ry="3" fill="rgba(255,255,255,0.6)" transform="rotate(-60) translate(45,0) rotate(-10)" filter="url(#blur)"/>
		</g>

		<g id="orb-fire">
			<use xlink:href="#orb" fill="#D32F2F"/>
			<path fill="rgba(255,255,255,0.3)" stroke="rgba(64,64,64,0.2)" transform="scale(2.6) translate(-12,-10)" d="M11.71,19C9.93,19 8.5,17.59 8.5,15.86C8.5,14.24 9.53,13.1 11.3,12.74C13.07,12.38 14.9,11.53 15.92,10.16C16.31,11.45 16.5,12.81 16.5,14.2C16.5,16.84 14.36,19 11.71,19M13.5,0.67C13.5,0.67 14.24,3.32 14.24,5.47C14.24,7.53 12.89,9.2 10.83,9.2C8.76,9.2 7.2,7.53 7.2,5.47L7.23,5.1C5.21,7.5 4,10.61 4,14A8,8 0 0,0 12,22A8,8 0 0,0 20,14C20,8.6 17.41,3.8 13.5,0.67Z"/>
		</g>

		<g id="orb-wind">
			<use xlink:href="#orb" fill="#FFA000"/>
			<path fill="rgba(255,255,255,0.3)" stroke="rgba(64,64,64,0.2)" transform="scale(2.6) translate(-12,-10)" d="M12,7A5,5 0 0,1 17,12A5,5 0 0,1 12,17A5,5 0 0,1 7,12A5,5 0 0,1 12,7M12,9A3,3 0 0,0 9,12A3,3 0 0,0 12,15A3,3 0 0,0 15,12A3,3 0 0,0 12,9M12,2L14.39,5.42C13.65,5.15 12.84,5 12,5C11.16,5 10.35,5.15 9.61,5.42L12,2M3.34,7L7.5,6.65C6.9,7.16 6.36,7.78 5.94,8.5C5.5,9.24 5.25,10 5.11,10.79L3.34,7M3.36,17L5.12,13.23C5.26,14 5.53,14.78 5.95,15.5C6.37,16.24 6.91,16.86 7.5,17.37L3.36,17M20.65,7L18.88,10.79C18.74,10 18.47,9.23 18.05,8.5C17.63,7.78 17.1,7.15 16.5,6.64L20.65,7M20.64,17L16.5,17.36C17.09,16.85 17.62,16.22 18.04,15.5C18.46,14.77 18.73,14 18.87,13.21L20.64,17M12,22L9.59,18.56C10.33,18.83 11.14,19 12,19C12.82,19 13.63,18.83 14.37,18.56L12,22Z"/>
		</g>

		<g id="orb-nature">
			<use xlink:href="#orb" fill="#388E3C"/>
			<path fill="rgba(255,255,255,0.3)" stroke="rgba(64,64,64,0.2)" transform="scale(2.25) translate(-12,-10)" d="M17,8C8,10 5.9,16.17 3.82,21.34L5.71,22L6.66,19.7C7.14,19.87 7.64,20 8,20C19,20 22,3 22,3C21,5 14,5.25 9,6.25C4,7.25 2,11.5 2,13.5C2,15.5 3.75,17.25 3.75,17.25C7,8 17,8 17,8Z"/>
		</g>

		<g id="orb-water">
			<use xlink:href="#orb" fill="#1976D2"/>
			<path fill="rgba(255,255,255,0.3)" stroke="rgba(64,64,64,0.2)" transform="scale(2.6) translate(-12,-10)" d="M12,20A6,6 0 0,1 6,14C6,10 12,3.25 12,3.25C12,3.25 18,10 18,14A6,6 0 0,1 12,20Z"/>
		</g>

		<g id="orb-arcane">
			<use xlink:href="#orb" fill="#512DA8"/>
			<path fill="rgba(255,255,255,0.3)" stroke="rgba(64,64,64,0.2)" transform="scale(2.6) translate(-12,-10)" d="M17.75,4.09L15.22,6.03L16.13,9.09L13.5,7.28L10.87,9.09L11.78,6.03L9.25,4.09L12.44,4L13.5,1L14.56,4L17.75,4.09M21.25,11L19.61,12.25L20.2,14.23L18.5,13.06L16.8,14.23L17.39,12.25L15.75,11L17.81,10.95L18.5,9L19.19,10.95L21.25,11M18.97,15.95C19.8,15.87 20.69,17.05 20.16,17.8C19.84,18.25 19.5,18.67 19.08,19.07C15.17,23 8.84,23 4.94,19.07C1.03,15.17 1.03,8.83 4.94,4.93C5.34,4.53 5.76,4.17 6.21,3.85C6.96,3.32 8.14,4.21 8.06,5.04C7.79,7.9 8.75,10.87 10.95,13.06C13.14,15.26 16.1,16.22 18.97,15.95M17.33,17.97C14.5,17.81 11.7,16.64 9.53,14.5C7.36,12.31 6.2,9.5 6.04,6.68C3.23,9.82 3.34,14.64 6.35,17.66C9.37,20.67 14.19,20.78 17.33,17.97Z"/>
		</g>

		<g id="orb-stone">
			<use xlink:href="#orb" fill="#5D4037"/>
			<path fill="rgba(255,255,255,0.3)" stroke="rgba(64,64,64,0.2)" transform="scale(2.6) translate(-12,-10)" d="M16,9H19L14,16M10,9H14L12,17M5,9H8L10,16M15,4H17L19,7H16M11,4H13L14,7H10M7,4H9L8,7H5M6,2L2,8L12,22L22,8L18,2H6Z"/>
		</g>
	</defs>

	<rect fill="#673AB7" stroke="#512DA8" stroke-width="10" width="1910" height="1070" x="5" y="5"/>

	<g transform="translate(0,80)">
		<g transform="translate(480,0)">
			<use xlink:href="#row"/>
			<use xlink:href="#row" transform="translate(0,240)"/>
			<use xlink:href="#row" transform="translate(0,480)"/>
			<use xlink:href="#row" transform="translate(0,720)"/>
			<use xlink:href="#row-alt" transform="translate(0,120)"/>
			<use xlink:href="#row-alt" transform="translate(0,360)"/>
			<use xlink:href="#row-alt" transform="translate(0,600)"/>
			<use xlink:href="#row-alt" transform="translate(0,840)"/>

			<use xlink:href="#orb-fire" x="60" y="60"/>
			<use xlink:href="#orb-wind" x="60" y="180"/>
			<use xlink:href="#orb-nature" x="60" y="300"/>
			<use xlink:href="#orb-water" x="60" y="420"/>
			<use xlink:href="#orb-arcane" x="60" y="540"/>
			<use xlink:href="#orb-stone" x="60" y="660"/>
			<use xlink:href="#orb-water" x="60" y="780"/>
			<use xlink:href="#orb-arcane" x="60" y="900"/>

			<use xlink:href="#orb-fire" x="180" y="60"/>
			<use xlink:href="#orb-nature" x="180" y="180"/>
			<use xlink:href="#orb-arcane" x="180" y="300"/>
			<use xlink:href="#orb-arcane" x="180" y="420"/>
			<use xlink:href="#orb-wind" x="180" y="540"/>
			<use xlink:href="#orb-water" x="180" y="660"/>
			<use xlink:href="#orb-nature" x="180" y="780"/>
			<use xlink:href="#orb-stone" x="180" y="900"/>

			<use xlink:href="#orb-nature" x="300" y="60"/>
			<use xlink:href="#orb-wind" x="300" y="180"/>
			<use xlink:href="#orb-nature" x="300" y="300"/>
			<use xlink:href="#orb-water" x="300" y="420"/>
			<use xlink:href="#orb-wind" x="300" y="540"/>
			<use xlink:href="#orb-arcane" x="300" y="660"/>
			<use xlink:href="#orb-stone" x="300" y="780"/>
			<use xlink:href="#orb-fire" x="300" y="900"/>

			<use xlink:href="#orb-nature" x="420" y="60"/>
			<use xlink:href="#orb-fire" x="420" y="180"/>
			<use xlink:href="#orb-fire" x="420" y="300"/>
			<use xlink:href="#orb-stone" x="420" y="420"/>
			<use xlink:href="#orb-nature" x="420" y="540"/>
			<use xlink:href="#orb-wind" x="420" y="660"/>
			<use xlink:href="#orb-stone" x="420" y="780"/>
			<use xlink:href="#orb-water" x="420" y="900"/>

			<use xlink:href="#orb-fire" x="540" y="60"/>
			<use xlink:href="#orb-wind" x="540" y="180"/>
			<use xlink:href="#orb-nature" x="540" y="300"/>
			<use xlink:href="#orb-water" x="540" y="420"/>
			<use xlink:href="#orb-arcane" x="540" y="540"/>
			<use xlink:href="#orb-fire" x="540" y="660"/>
			<use xlink:href="#orb-wind" x="540" y="780"/>
			<use xlink:href="#orb-arcane" x="540" y="900"/>

			<use xlink:href="#orb-water" x="660" y="60"/>
			<use xlink:href="#orb-stone" x="660" y="180"/>
			<use xlink:href="#orb-nature" x="660" y="300"/>
			<use xlink:href="#orb-water" x="660" y="420"/>
			<use xlink:href="#orb-wind" x="660" y="540"/>
			<use xlink:href="#orb-arcane" x="660" y="660"/>
			<use xlink:href="#orb-stone" x="660" y="780"/>
			<use xlink:href="#orb-wind" x="660" y="900"/>

			<use xlink:href="#orb-fire" x="780" y="60"/>
			<use xlink:href="#orb-wind" x="780" y="180"/>
			<use xlink:href="#orb-stone" x="780" y="300"/>
			<use xlink:href="#orb-fire" x="780" y="420"/>
			<use xlink:href="#orb-arcane" x="780" y="540"/>
			<use xlink:href="#orb-stone" x="780" y="660"/>
			<use xlink:href="#orb-nature" x="780" y="780"/>
			<use xlink:href="#orb-fire" x="780" y="900"/>

			<use xlink:href="#orb-water" x="900" y="60"/>
			<use xlink:href="#orb-arcane" x="900" y="180"/>
			<use xlink:href="#orb-stone" x="900" y="300"/>
			<use xlink:href="#orb-water" x="900" y="420"/>
			<use xlink:href="#orb-nature" x="900" y="540"/>
			<use xlink:href="#orb-fire" x="900" y="660"/>
			<use xlink:href="#orb-stone" x="900" y="780"/>
			<use xlink:href="#orb-water" x="900" y="900"/>
		</g>
		<use xlink:href="#units"/>
		<use xlink:href="#units" x="1440"/>
	</g>
</svg>